<?xml version="1.0" encoding="UTF-8" standalone="no"?>
<!DOCTYPE svg PUBLIC "-//W3C//DTD SVG 1.1//EN"
 "http://www.w3.org/Graphics/SVG/1.1/DTD/svg11.dtd">
<!-- Generated by graphviz version 2.40.1 (20161225.0304)
 -->
<!-- Title: %3 Pages: 1 -->
<svg width="1573pt" height="548pt"
 viewBox="0.00 0.00 1573.24 548.00" xmlns="http://www.w3.org/2000/svg" xmlns:xlink="http://www.w3.org/1999/xlink">
<g id="graph0" class="graph" transform="scale(1 1) rotate(0) translate(4 544)">
<title>%3</title>
<polygon fill="#ffffff" stroke="transparent" points="-4,4 -4,-544 1569.2434,-544 1569.2434,4 -4,4"/>
<!-- [root] data.template_file.example (expand) -->
<g id="node1" class="node">
<title>[root] data.template_file.example (expand)</title>
<polygon fill="none" stroke="#000000" points="1002.5715,-324 791.5715,-324 791.5715,-288 1002.5715,-288 1002.5715,-324"/>
<text text-anchor="middle" x="897.0715" y="-302.3" font-family="Times,serif" font-size="14.00" fill="#000000">data.template_file.example</text>
</g>
<!-- [root] docker_container.stack_directus (expand) -->
<g id="node2" class="node">
<title>[root] docker_container.stack_directus (expand)</title>
<polygon fill="none" stroke="#000000" points="663.5715,-252 412.5715,-252 412.5715,-216 663.5715,-216 663.5715,-252"/>
<text text-anchor="middle" x="538.0715" y="-230.3" font-family="Times,serif" font-size="14.00" fill="#000000">docker_container.stack_directus</text>
</g>
<!-- [root] data.template_file.example (expand)&#45;&gt;[root] docker_container.stack_directus (expand) -->
<g id="edge1" class="edge">
<title>[root] data.template_file.example (expand)&#45;&gt;[root] docker_container.stack_directus (expand)</title>
<path fill="none" stroke="#000000" d="M806.944,-287.9243C755.5286,-277.6126 690.9788,-264.6666 638.0142,-254.0442"/>
<polygon fill="#000000" stroke="#000000" points="638.4177,-250.5555 627.9246,-252.0207 637.0411,-257.4188 638.4177,-250.5555"/>
</g>
<!-- [root] provider[&quot;registry.terraform.io/hashicorp/template&quot;] -->
<g id="node7" class="node">
<title>[root] provider[&quot;registry.terraform.io/hashicorp/template&quot;]</title>
<polygon fill="none" stroke="#000000" points="1042.0715,-252 681.9521,-234 1042.0715,-216 1402.1909,-234 1042.0715,-252"/>
<text text-anchor="middle" x="1042.0715" y="-230.3" font-family="Times,serif" font-size="14.00" fill="#000000">provider[&quot;registry.terraform.io/hashicorp/template&quot;]</text>
</g>
<!-- [root] data.template_file.example (expand)&#45;&gt;[root] provider[&quot;registry.terraform.io/hashicorp/template&quot;] -->
<g id="edge2" class="edge">
<title>[root] data.template_file.example (expand)&#45;&gt;[root] provider[&quot;registry.terraform.io/hashicorp/template&quot;]</title>
<path fill="none" stroke="#000000" d="M933.6611,-287.8314C953.8317,-277.8156 978.9636,-265.3363 999.9498,-254.9156"/>
<polygon fill="#000000" stroke="#000000" points="1001.5646,-258.0216 1008.9646,-250.4393 998.4514,-251.7519 1001.5646,-258.0216"/>
</g>
<!-- [root] docker_image.image (expand) -->
<g id="node3" class="node">
<title>[root] docker_image.image (expand)</title>
<polygon fill="none" stroke="#000000" points="734.5715,-180 569.5715,-180 569.5715,-144 734.5715,-144 734.5715,-180"/>
<text text-anchor="middle" x="652.0715" y="-158.3" font-family="Times,serif" font-size="14.00" fill="#000000">docker_image.image</text>
</g>
<!-- [root] docker_container.stack_directus (expand)&#45;&gt;[root] docker_image.image (expand) -->
<g id="edge3" class="edge">
<title>[root] docker_container.stack_directus (expand)&#45;&gt;[root] docker_image.image (expand)</title>
<path fill="none" stroke="#000000" d="M566.8385,-215.8314C581.2848,-206.7074 598.968,-195.539 614.4755,-185.7449"/>
<polygon fill="#000000" stroke="#000000" points="616.7278,-188.462 623.3137,-180.1628 612.9898,-182.5436 616.7278,-188.462"/>
</g>
<!-- [root] docker_network.private_network (expand) -->
<g id="node4" class="node">
<title>[root] docker_network.private_network (expand)</title>
<polygon fill="none" stroke="#000000" points="551.5715,-180 296.5715,-180 296.5715,-144 551.5715,-144 551.5715,-180"/>
<text text-anchor="middle" x="424.0715" y="-158.3" font-family="Times,serif" font-size="14.00" fill="#000000">docker_network.private_network</text>
</g>
<!-- [root] docker_container.stack_directus (expand)&#45;&gt;[root] docker_network.private_network (expand) -->
<g id="edge4" class="edge">
<title>[root] docker_container.stack_directus (expand)&#45;&gt;[root] docker_network.private_network (expand)</title>
<path fill="none" stroke="#000000" d="M509.3045,-215.8314C494.8582,-206.7074 477.175,-195.539 461.6675,-185.7449"/>
<polygon fill="#000000" stroke="#000000" points="463.1532,-182.5436 452.8293,-180.1628 459.4152,-188.462 463.1532,-182.5436"/>
</g>
<!-- [root] provider[&quot;registry.terraform.io/kreuzwerker/docker&quot;] -->
<g id="node8" class="node">
<title>[root] provider[&quot;registry.terraform.io/kreuzwerker/docker&quot;]</title>
<polygon fill="none" stroke="#000000" points="424.0715,-108 58.4222,-90 424.0715,-72 789.7208,-90 424.0715,-108"/>
<text text-anchor="middle" x="424.0715" y="-86.3" font-family="Times,serif" font-size="14.00" fill="#000000">provider[&quot;registry.terraform.io/kreuzwerker/docker&quot;]</text>
</g>
<!-- [root] docker_image.image (expand)&#45;&gt;[root] provider[&quot;registry.terraform.io/kreuzwerker/docker&quot;] -->
<g id="edge6" class="edge">
<title>[root] docker_image.image (expand)&#45;&gt;[root] provider[&quot;registry.terraform.io/kreuzwerker/docker&quot;]</title>
<path fill="none" stroke="#000000" d="M594.8318,-143.9243C560.8551,-133.1948 517.8473,-119.6134 483.4941,-108.765"/>
<polygon fill="#000000" stroke="#000000" points="484.1806,-105.3115 473.5908,-105.6377 482.0726,-111.9866 484.1806,-105.3115"/>
</g>
<!-- [root] local.cont (expand) -->
<g id="node10" class="node">
<title>[root] local.cont (expand)</title>
<ellipse fill="none" stroke="#000000" cx="936.0715" cy="-90" rx="128.0773" ry="18"/>
<text text-anchor="middle" x="936.0715" y="-86.3" font-family="Times,serif" font-size="14.00" fill="#000000">[root] local.cont (expand)</text>
</g>
<!-- [root] docker_image.image (expand)&#45;&gt;[root] local.cont (expand) -->
<g id="edge5" class="edge">
<title>[root] docker_image.image (expand)&#45;&gt;[root] local.cont (expand)</title>
<path fill="none" stroke="#000000" d="M723.3701,-143.9243C766.3569,-133.0262 820.9492,-119.1859 864.0628,-108.2557"/>
<polygon fill="#000000" stroke="#000000" points="865.0847,-111.6075 873.9179,-105.7572 863.3645,-104.8221 865.0847,-111.6075"/>
</g>
<!-- [root] docker_network.private_network (expand)&#45;&gt;[root] provider[&quot;registry.terraform.io/kreuzwerker/docker&quot;] -->
<g id="edge7" class="edge">
<title>[root] docker_network.private_network (expand)&#45;&gt;[root] provider[&quot;registry.terraform.io/kreuzwerker/docker&quot;]</title>
<path fill="none" stroke="#000000" d="M424.0715,-143.8314C424.0715,-136.131 424.0715,-126.9743 424.0715,-118.4166"/>
<polygon fill="#000000" stroke="#000000" points="427.5716,-118.4132 424.0715,-108.4133 420.5716,-118.4133 427.5716,-118.4132"/>
</g>
<!-- [root] output.ip_du_container -->
<g id="node5" class="node">
<title>[root] output.ip_du_container</title>
<polygon fill="none" stroke="#000000" points="725.5715,-324 548.5715,-324 548.5715,-288 731.5715,-288 731.5715,-318 725.5715,-324"/>
<polyline fill="none" stroke="#000000" points="725.5715,-324 725.5715,-318 "/>
<polyline fill="none" stroke="#000000" points="731.5715,-318 725.5715,-318 "/>
<text text-anchor="middle" x="640.0715" y="-302.3" font-family="Times,serif" font-size="14.00" fill="#000000">output.ip_du_container</text>
</g>
<!-- [root] output.ip_du_container&#45;&gt;[root] docker_container.stack_directus (expand) -->
<g id="edge11" class="edge">
<title>[root] output.ip_du_container&#45;&gt;[root] docker_container.stack_directus (expand)</title>
<path fill="none" stroke="#000000" d="M614.3326,-287.8314C601.5278,-278.7927 585.8806,-267.7476 572.0996,-258.0198"/>
<polygon fill="#000000" stroke="#000000" points="573.9903,-255.0703 563.8022,-252.1628 569.9535,-260.7891 573.9903,-255.0703"/>
</g>
<!-- [root] output.rendered -->
<g id="node6" class="node">
<title>[root] output.rendered</title>
<polygon fill="none" stroke="#000000" points="907.0715,-396 779.0715,-396 779.0715,-360 913.0715,-360 913.0715,-390 907.0715,-396"/>
<polyline fill="none" stroke="#000000" points="907.0715,-396 907.0715,-390 "/>
<polyline fill="none" stroke="#000000" points="913.0715,-390 907.0715,-390 "/>
<text text-anchor="middle" x="846.0715" y="-374.3" font-family="Times,serif" font-size="14.00" fill="#000000">output.rendered</text>
</g>
<!-- [root] output.rendered&#45;&gt;[root] data.template_file.example (expand) -->
<g id="edge12" class="edge">
<title>[root] output.rendered&#45;&gt;[root] data.template_file.example (expand)</title>
<path fill="none" stroke="#000000" d="M858.941,-359.8314C864.7551,-351.6232 871.7411,-341.7606 878.1361,-332.7323"/>
<polygon fill="#000000" stroke="#000000" points="881.1047,-334.5966 884.0288,-324.4133 875.3925,-330.5505 881.1047,-334.5966"/>
</g>
<!-- [root] var.DB -->
<g id="node9" class="node">
<title>[root] var.DB</title>
<polygon fill="none" stroke="#000000" points="962.5715,-36 903.5715,-36 903.5715,0 968.5715,0 968.5715,-30 962.5715,-36"/>
<polyline fill="none" stroke="#000000" points="962.5715,-36 962.5715,-30 "/>
<polyline fill="none" stroke="#000000" points="968.5715,-30 962.5715,-30 "/>
<text text-anchor="middle" x="936.0715" y="-14.3" font-family="Times,serif" font-size="14.00" fill="#000000">var.DB</text>
</g>
<!-- [root] local.cont (expand)&#45;&gt;[root] var.DB -->
<g id="edge8" class="edge">
<title>[root] local.cont (expand)&#45;&gt;[root] var.DB</title>
<path fill="none" stroke="#000000" d="M936.0715,-71.8314C936.0715,-64.131 936.0715,-54.9743 936.0715,-46.4166"/>
<polygon fill="#000000" stroke="#000000" points="939.5716,-46.4132 936.0715,-36.4133 932.5716,-46.4133 939.5716,-46.4132"/>
</g>
<!-- [root] meta.count&#45;boundary (EachMode fixup) -->
<g id="node11" class="node">
<title>[root] meta.count&#45;boundary (EachMode fixup)</title>
<ellipse fill="none" stroke="#000000" cx="884.0715" cy="-450" rx="224.4604" ry="18"/>
<text text-anchor="middle" x="884.0715" y="-446.3" font-family="Times,serif" font-size="14.00" fill="#000000">[root] meta.count&#45;boundary (EachMode fixup)</text>
</g>
<!-- [root] meta.count&#45;boundary (EachMode fixup)&#45;&gt;[root] output.ip_du_container -->
<g id="edge9" class="edge">
<title>[root] meta.count&#45;boundary (EachMode fixup)&#45;&gt;[root] output.ip_du_container</title>
<path fill="none" stroke="#000000" d="M842.3504,-432.211C820.4012,-422.3635 793.2997,-409.422 770.0715,-396 735.2648,-375.8876 697.7389,-349.334 671.9952,-330.2902"/>
<polygon fill="#000000" stroke="#000000" points="673.848,-327.3061 663.7373,-324.1399 669.6668,-332.9201 673.848,-327.3061"/>
</g>
<!-- [root] meta.count&#45;boundary (EachMode fixup)&#45;&gt;[root] output.rendered -->
<g id="edge10" class="edge">
<title>[root] meta.count&#45;boundary (EachMode fixup)&#45;&gt;[root] output.rendered</title>
<path fill="none" stroke="#000000" d="M874.4825,-431.8314C870.2398,-423.7925 865.1594,-414.1666 860.4755,-405.2918"/>
<polygon fill="#000000" stroke="#000000" points="863.5526,-403.6235 855.7896,-396.4133 857.3619,-406.8908 863.5526,-403.6235"/>
</g>
<!-- [root] provider[&quot;registry.terraform.io/hashicorp/template&quot;] (close) -->
<g id="node12" class="node">
<title>[root] provider[&quot;registry.terraform.io/hashicorp/template&quot;] (close)</title>
<ellipse fill="none" stroke="#000000" cx="1248.0715" cy="-378" rx="317.3438" ry="18"/>
<text text-anchor="middle" x="1248.0715" y="-374.3" font-family="Times,serif" font-size="14.00" fill="#000000">[root] provider[&quot;registry.terraform.io/hashicorp/template&quot;] (close)</text>
</g>
<!-- [root] provider[&quot;registry.terraform.io/hashicorp/template&quot;] (close)&#45;&gt;[root] data.template_file.example (expand) -->
<g id="edge13" class="edge">
<title>[root] provider[&quot;registry.terraform.io/hashicorp/template&quot;] (close)&#45;&gt;[root] data.template_file.example (expand)</title>
<path fill="none" stroke="#000000" d="M1163.1042,-360.5708C1112.4032,-350.1706 1047.8204,-336.9228 994.9844,-326.0847"/>
<polygon fill="#000000" stroke="#000000" points="995.4213,-322.6015 984.9219,-324.0206 994.0146,-329.4587 995.4213,-322.6015"/>
</g>
<!-- [root] provider[&quot;registry.terraform.io/kreuzwerker/docker&quot;] (close) -->
<g id="node13" class="node">
<title>[root] provider[&quot;registry.terraform.io/kreuzwerker/docker&quot;] (close)</title>
<ellipse fill="none" stroke="#000000" cx="321.0715" cy="-450" rx="321.143" ry="18"/>
<text text-anchor="middle" x="321.0715" y="-446.3" font-family="Times,serif" font-size="14.00" fill="#000000">[root] provider[&quot;registry.terraform.io/kreuzwerker/docker&quot;] (close)</text>
</g>
<!-- [root] provider[&quot;registry.terraform.io/kreuzwerker/docker&quot;] (close)&#45;&gt;[root] docker_container.stack_directus (expand) -->
<g id="edge14" class="edge">
<title>[root] provider[&quot;registry.terraform.io/kreuzwerker/docker&quot;] (close)&#45;&gt;[root] docker_container.stack_directus (expand)</title>
<path fill="none" stroke="#000000" d="M339.1996,-431.9555C377.8127,-393.5203 468.2614,-303.4884 512.6247,-259.3295"/>
<polygon fill="#000000" stroke="#000000" points="515.2242,-261.6804 519.8424,-252.1451 510.2859,-256.7192 515.2242,-261.6804"/>
</g>
<!-- [root] root -->
<g id="node14" class="node">
<title>[root] root</title>
<ellipse fill="none" stroke="#000000" cx="884.0715" cy="-522" rx="58.4896" ry="18"/>
<text text-anchor="middle" x="884.0715" y="-518.3" font-family="Times,serif" font-size="14.00" fill="#000000">[root] root</text>
</g>
<!-- [root] root&#45;&gt;[root] meta.count&#45;boundary (EachMode fixup) -->
<g id="edge15" class="edge">
<title>[root] root&#45;&gt;[root] meta.count&#45;boundary (EachMode fixup)</title>
<path fill="none" stroke="#000000" d="M884.0715,-503.8314C884.0715,-496.131 884.0715,-486.9743 884.0715,-478.4166"/>
<polygon fill="#000000" stroke="#000000" points="887.5716,-478.4132 884.0715,-468.4133 880.5716,-478.4133 887.5716,-478.4132"/>
</g>
<!-- [root] root&#45;&gt;[root] provider[&quot;registry.terraform.io/hashicorp/template&quot;] (close) -->
<g id="edge16" class="edge">
<title>[root] root&#45;&gt;[root] provider[&quot;registry.terraform.io/hashicorp/template&quot;] (close)</title>
<path fill="none" stroke="#000000" d="M938.6384,-515.2451C987.0593,-507.8936 1058.9294,-493.6064 1117.0715,-468 1155.1873,-451.2134 1193.8962,-422.935 1219.2487,-402.5515"/>
<polygon fill="#000000" stroke="#000000" points="1221.7796,-405.0037 1227.3143,-395.9695 1217.3538,-399.5804 1221.7796,-405.0037"/>
</g>
<!-- [root] root&#45;&gt;[root] provider[&quot;registry.terraform.io/kreuzwerker/docker&quot;] (close) -->
<g id="edge17" class="edge">
<title>[root] root&#45;&gt;[root] provider[&quot;registry.terraform.io/kreuzwerker/docker&quot;] (close)</title>
<path fill="none" stroke="#000000" d="M829.8332,-515.0637C745.3283,-504.2566 579.5661,-483.0579 460.1833,-467.7905"/>
<polygon fill="#000000" stroke="#000000" points="460.5909,-464.3142 450.2277,-466.5173 459.7029,-471.2577 460.5909,-464.3142"/>
</g>
</g>
</svg>
